<svg width="180" height="187" viewBox="0 0 180 187" fill="none" xmlns="http://www.w3.org/2000/svg">
<g clip-path="url(#clip0_55_124)">
<path d="M175 0C177.761 1.28851e-06 180 2.23858 180 5V139.018L90.1484 187L3.35156 139.72C2.83458 139.539 2.3564 139.277 1.93262 138.947L0 137.895V5C0 2.23858 2.23858 2.0133e-08 5 0H175Z" fill="#252122"/>
<rect x="125.285" y="36.7812" width="18.0896" height="67.5921" transform="rotate(50.0058 125.285 36.7812)" fill="white"/>
<path d="M154.416 24.1484C153.265 22.4154 134.354 31.9835 125.043 36.9843L136.669 50.8429C143.064 42.6668 155.567 25.8814 154.416 24.1484Z" fill="white"/>
<path d="M85.1112 98.0492L84.2746 93.4967L100.686 79.7287L99.3948 89.2997L85.1112 98.0492Z" fill="white"/>
<path d="M69.488 79.4265L73.704 80.8007L90.5591 66.6606L81.0344 66.7176L69.488 79.4265Z" fill="white"/>
<path d="M76.5906 83.3088C9.34841 131.784 76.9204 142.226 119.112 141.388C27.7163 140.81 58.2442 106.104 84.9326 88.8235L88.278 86.1203L81.4038 80.0174L76.5906 83.3088Z" fill="white"/>
</g>
<defs>
<clipPath id="clip0_55_124">
<rect width="180" height="187" fill="white"/>
</clipPath>
</defs>
</svg>
