<svg width="964" height="207" viewBox="0 0 964 207" fill="none" xmlns="http://www.w3.org/2000/svg">
<g clip-path="url(#clip0_40_57)">
<ellipse cx="481.5" cy="208.5" rx="474.5" ry="198.5" fill="#698DAA"/>
<ellipse cx="496" cy="293.5" rx="386" ry="242.5" fill="#CBE2F4"/>
<ellipse cx="501" cy="310.5" rx="345" ry="242.5" fill="#181C30"/>
<path d="M287.939 118.23C241.636 135.812 275.373 151.855 298.029 157.679C252.644 141.783 278.722 129.764 291.56 123.464C301.83 118.424 496.536 81.7092 592.605 63.9817C592.904 62.342 592.643 58.1948 589.21 54.7229C584.919 50.3831 345.818 96.2525 287.939 118.23Z" fill="white"/>
<path d="M402 193L403.824 190.12L414 178.888L402 164.776H414.048L419.952 173.464H420.48L426.384 164.776H438.432L436.56 167.608L426.432 178.888L438.432 193H426.384L420.48 184.264H419.952L414.048 193H402ZM450.073 193C446.681 193 444.201 192.248 442.633 190.744C441.097 189.208 440.329 186.776 440.329 183.448V174.28C440.329 171.016 441.097 168.616 442.633 167.08C444.169 165.544 446.649 164.776 450.073 164.776H464.089C467.449 164.776 469.897 165.544 471.433 167.08C473.001 168.616 473.785 171.016 473.785 174.28V183.448C473.785 186.776 473.001 189.208 471.433 190.744C469.865 192.248 467.417 193 464.089 193H450.073ZM453.385 186.472H460.825C463.321 186.472 464.569 185.336 464.569 183.064V174.664C464.569 172.424 463.321 171.304 460.825 171.304H453.385C452.105 171.304 451.145 171.56 450.505 172.072C449.865 172.584 449.545 173.448 449.545 174.664V183.064C449.545 184.248 449.865 185.112 450.505 185.656C451.145 186.2 452.105 186.472 453.385 186.472ZM475.688 193L477.512 190.12L487.688 178.888L475.688 164.776H487.736L493.64 173.464H494.168L500.072 164.776H512.12L510.248 167.608L500.12 178.888L512.12 193H500.072L494.168 184.264H493.64L487.736 193H475.688ZM523.76 193C520.368 193 517.888 192.248 516.32 190.744C514.784 189.208 514.016 186.776 514.016 183.448V174.28C514.016 171.016 514.784 168.616 516.32 167.08C517.856 165.544 520.336 164.776 523.76 164.776H537.776C541.136 164.776 543.584 165.544 545.12 167.08C546.688 168.616 547.472 171.016 547.472 174.28V183.448C547.472 186.776 546.688 189.208 545.12 190.744C543.552 192.248 541.104 193 537.776 193H523.76ZM527.072 186.472H534.512C537.008 186.472 538.256 185.336 538.256 183.064V174.664C538.256 172.424 537.008 171.304 534.512 171.304H527.072C525.792 171.304 524.832 171.56 524.192 172.072C523.552 172.584 523.232 173.448 523.232 174.664V183.064C523.232 184.248 523.552 185.112 524.192 185.656C524.832 186.2 525.792 186.472 527.072 186.472ZM549.759 193L563.823 164.776H576.303L590.319 193H579.999L577.647 187.864H562.479L559.839 193H549.759ZM565.119 181.24H574.959L570.303 171.016H569.823L565.119 181.24ZM603.583 193.48C600.383 193.48 597.951 192.728 596.287 191.224C594.655 189.72 593.839 187.288 593.839 183.928V164.776H603.199V183.064C603.199 184.568 603.567 185.576 604.303 186.088C605.039 186.6 605.951 186.856 607.039 186.856H613.231C614.255 186.856 615.151 186.6 615.919 186.088C616.687 185.544 617.071 184.536 617.071 183.064V164.776H626.287V183.928C626.287 187.288 625.471 189.72 623.839 191.224C622.239 192.728 619.823 193.48 616.591 193.48H603.583ZM633.231 193V164.776H642.495V175.528H657.423V164.776H666.639V193H657.423V182.056H642.495V193H633.231ZM683.604 193C680.18 193 677.7 192.248 676.164 190.744C674.628 189.24 673.86 186.808 673.86 183.448V174.664C673.86 171.208 674.708 168.696 676.404 167.128C678.1 165.528 680.5 164.728 683.604 164.728H697.62C699.828 164.728 701.508 164.856 702.66 165.112C703.844 165.336 704.436 165.576 704.436 165.832L702.948 171.832C702.148 171.736 700.58 171.64 698.244 171.544C695.94 171.416 693.028 171.352 689.508 171.352H687.06C685.556 171.352 684.532 171.64 683.988 172.216C683.476 172.76 683.22 173.608 683.22 174.76V182.968C683.22 184.056 683.444 184.904 683.892 185.512C684.372 186.088 685.428 186.376 687.06 186.376H689.028C693.604 186.376 697.092 186.328 699.492 186.232C701.892 186.104 703.332 185.976 703.812 185.848L706.74 191.032C706.74 191.192 706.404 191.432 705.732 191.752C705.092 192.072 703.988 192.36 702.42 192.616C700.884 192.872 698.74 193 695.988 193H683.604ZM720.823 193C717.431 193 714.951 192.248 713.383 190.744C711.847 189.208 711.079 186.776 711.079 183.448V174.28C711.079 171.016 711.847 168.616 713.383 167.08C714.919 165.544 717.399 164.776 720.823 164.776H734.839C738.199 164.776 740.647 165.544 742.183 167.08C743.751 168.616 744.535 171.016 744.535 174.28V183.448C744.535 186.776 743.751 189.208 742.183 190.744C740.615 192.248 738.167 193 734.839 193H720.823ZM724.135 186.472H731.575C734.071 186.472 735.319 185.336 735.319 183.064V174.664C735.319 172.424 734.071 171.304 731.575 171.304H724.135C722.855 171.304 721.895 171.56 721.255 172.072C720.615 172.584 720.295 173.448 720.295 174.664V183.064C720.295 184.248 720.615 185.112 721.255 185.656C721.895 186.2 722.855 186.472 724.135 186.472Z" fill="white"/>
<g filter="url(#filter0_d_40_57)">
<path d="M369.84 147V118.776H379.056V147H369.84ZM386.715 147L387.195 143.16V118.776H396.411V140.424H413.403L416.283 146.472C416.283 146.6 415.851 146.728 414.987 146.856C414.123 146.952 412.635 147 410.523 147H386.715ZM420.137 147V118.776H429.353V147H420.137ZM437.012 147V118.776H446.276V129.528H461.204V118.776H470.42V147H461.204V136.056H446.276V147H437.012ZM487.145 147.48C483.945 147.48 481.513 146.728 479.849 145.224C478.217 143.72 477.401 141.288 477.401 137.928V118.776H486.761V137.064C486.761 138.568 487.129 139.576 487.865 140.088C488.601 140.6 489.513 140.856 490.601 140.856H496.793C497.817 140.856 498.713 140.6 499.481 140.088C500.249 139.544 500.633 138.536 500.633 137.064V118.776H509.849V137.928C509.849 141.288 509.033 143.72 507.401 145.224C505.801 146.728 503.385 147.48 500.153 147.48H487.145ZM516.793 147V118.776H526.009V147H516.793ZM518.761 115.608C518.761 115.192 518.905 114.616 519.193 113.88C519.513 113.112 519.865 112.36 520.249 111.624C520.633 110.856 520.937 110.28 521.161 109.896C521.449 109.448 521.801 109.112 522.217 108.888C522.665 108.632 523.273 108.504 524.041 108.504H525.049C525.945 108.504 526.553 108.616 526.873 108.84C527.225 109.032 527.401 109.384 527.401 109.896C527.401 110.408 527.081 111.016 526.441 111.72C525.833 112.392 525.081 113.064 524.185 113.736C523.321 114.408 522.473 115.016 521.641 115.56C521.289 115.784 520.873 115.976 520.393 116.136C519.945 116.296 519.561 116.344 519.241 116.28C518.921 116.216 518.761 115.992 518.761 115.608ZM542.932 147C539.508 147 537.028 146.248 535.492 144.744C533.956 143.24 533.188 140.808 533.188 137.448V128.664C533.188 125.208 534.036 122.696 535.732 121.128C537.428 119.528 539.828 118.728 542.932 118.728H556.948C559.156 118.728 560.836 118.856 561.988 119.112C563.172 119.336 563.764 119.576 563.764 119.832L562.276 125.832C561.476 125.736 559.908 125.64 557.572 125.544C555.268 125.416 552.356 125.352 548.836 125.352H546.388C544.884 125.352 543.86 125.64 543.316 126.216C542.804 126.76 542.548 127.608 542.548 128.76V136.968C542.548 138.056 542.772 138.904 543.22 139.512C543.7 140.088 544.756 140.376 546.388 140.376H548.356C552.932 140.376 556.42 140.328 558.82 140.232C561.22 140.104 562.66 139.976 563.14 139.848L566.068 145.032C566.068 145.192 565.732 145.432 565.06 145.752C564.42 146.072 563.316 146.36 561.748 146.616C560.212 146.872 558.068 147 555.316 147H542.932ZM567.431 147L581.495 118.776H593.975L607.991 147H597.671L595.319 141.864H580.151L577.511 147H567.431ZM582.791 135.24H592.631L587.975 125.016H587.495L582.791 135.24ZM615.993 147V125.256H604.569V118.728H636.873V125.256H625.305V147H615.993ZM641.668 147L642.148 143.16V118.776H651.364V140.424H668.356L671.236 146.472C671.236 146.6 670.804 146.728 669.94 146.856C669.076 146.952 667.588 147 665.476 147H641.668Z" fill="white"/>
</g>
<rect x="339" y="153" width="126" height="3" fill="#00B015"/>
<rect x="465" y="153" width="116" height="3" fill="white"/>
<rect x="581" y="153" width="126" height="3" fill="#FF0000"/>
<path d="M582.432 57.7021L576.978 70.5379L614.568 52.3855L577.951 50.4617L582.432 57.7021Z" fill="#323232"/>
<path d="M339 49.1579C344.616 49.5088 346.367 40.5322 346.54 36C346.54 46.3709 349.645 49.0585 351.554 49.178C351.699 49.1647 351.847 49.1579 352 49.1579C351.861 49.1802 351.712 49.1879 351.554 49.178C347.454 49.5548 346.452 55.1448 346.46 59.1495C346.512 59.7344 346.54 60.3508 346.54 61C346.492 60.4493 346.462 59.8217 346.46 59.1495C345.81 51.8305 341.327 49.4287 339 49.1579Z" fill="white"/>
<path d="M882 175.158C887.616 175.509 889.367 166.532 889.54 162C889.54 172.371 892.645 175.059 894.554 175.178C894.699 175.165 894.847 175.158 895 175.158C894.861 175.18 894.712 175.188 894.554 175.178C890.454 175.555 889.452 181.145 889.46 185.149C889.512 185.734 889.54 186.351 889.54 187C889.492 186.449 889.462 185.822 889.46 185.149C888.81 177.831 884.327 175.429 882 175.158Z" fill="white"/>
<path d="M657.405 47.5881C656.758 56.2935 662.492 59.2916 665.439 59.7025C658.665 59.3779 656.679 64.1137 656.459 67.0718C656.456 67.297 656.45 67.528 656.438 67.7649C656.434 67.5486 656.44 67.3162 656.459 67.0718C656.517 60.6961 652.94 58.9672 650.324 58.8545C649.938 58.9169 649.533 58.9403 649.109 58.92C649.473 58.8622 649.885 58.8356 650.324 58.8545C655.153 58.0736 657.055 51.1918 657.405 47.5881Z" fill="white"/>
<path d="M267.681 67.2725C267.083 76.2293 271.26 79.2305 273.423 79.6115C268.443 79.3728 266.915 84.2683 266.711 87.3119C266.707 87.5434 266.698 87.7809 266.687 88.0246C266.687 87.8023 266.694 87.5634 266.711 87.3119C266.844 80.7578 264.236 79.031 262.312 78.9518C262.027 79.0214 261.729 79.0511 261.418 79.0362C261.686 78.9717 261.989 78.9385 262.312 78.9518C265.877 78.0815 267.373 70.9814 267.681 67.2725Z" fill="white"/>
<path d="M116.681 121.273C116.083 130.229 120.26 133.231 122.423 133.612C117.443 133.373 115.915 138.268 115.711 141.312C115.707 141.543 115.698 141.781 115.687 142.025C115.687 141.802 115.694 141.563 115.711 141.312C115.844 134.758 113.236 133.031 111.312 132.952C111.027 133.021 110.729 133.051 110.418 133.036C110.686 132.972 110.989 132.939 111.312 132.952C114.877 132.081 116.373 124.981 116.681 121.273Z" fill="white"/>
<path d="M522.422 15.176C521.99 21.9223 524.673 24.1603 526.069 24.4361C522.852 24.2819 521.84 27.9753 521.693 30.2677C521.688 30.442 521.682 30.6209 521.673 30.8044C521.674 30.6371 521.68 30.4572 521.693 30.2677C521.812 25.3328 520.136 24.0461 518.893 23.9964C518.709 24.0502 518.516 24.0741 518.314 24.0645C518.488 24.0145 518.684 23.988 518.893 23.9964C521.201 23.3228 522.204 17.9699 522.422 15.176Z" fill="white"/>
<path d="M645.431 36.1811C645.038 42.041 647.815 44.0066 649.254 44.257C645.943 44.0984 644.93 47.3005 644.796 49.2917C644.793 49.4432 644.788 49.5986 644.78 49.758C644.78 49.6126 644.785 49.4563 644.796 49.2917C644.881 45.0037 643.147 43.8726 641.868 43.8198C641.679 43.8652 641.48 43.8845 641.273 43.8746C641.451 43.8325 641.653 43.811 641.868 43.8198C644.237 43.2522 645.228 38.6076 645.431 36.1811Z" fill="white"/>
<path d="M839.431 142.181C839.038 148.041 841.815 150.007 843.254 150.257C839.943 150.098 838.93 153.301 838.796 155.292C838.793 155.443 838.788 155.599 838.78 155.758C838.78 155.613 838.785 155.456 838.796 155.292C838.881 151.004 837.147 149.873 835.868 149.82C835.679 149.865 835.48 149.885 835.273 149.875C835.451 149.832 835.653 149.811 835.868 149.82C838.237 149.252 839.228 144.608 839.431 142.181Z" fill="white"/>
</g>
<defs>
<filter id="filter0_d_40_57" x="365.84" y="108.504" width="309.396" height="46.976" filterUnits="userSpaceOnUse" color-interpolation-filters="sRGB">
<feFlood flood-opacity="0" result="BackgroundImageFix"/>
<feColorMatrix in="SourceAlpha" type="matrix" values="0 0 0 0 0 0 0 0 0 0 0 0 0 0 0 0 0 0 127 0" result="hardAlpha"/>
<feOffset dy="4"/>
<feGaussianBlur stdDeviation="2"/>
<feComposite in2="hardAlpha" operator="out"/>
<feColorMatrix type="matrix" values="0 0 0 0 0 0 0 0 0 0 0 0 0 0 0 0 0 0 0.25 0"/>
<feBlend mode="normal" in2="BackgroundImageFix" result="effect1_dropShadow_40_57"/>
<feBlend mode="normal" in="SourceGraphic" in2="effect1_dropShadow_40_57" result="shape"/>
</filter>
<clipPath id="clip0_40_57">
<rect width="964" height="207" fill="white"/>
</clipPath>
</defs>
</svg>
