<svg width="543" height="213" viewBox="0 0 543 213" fill="none" xmlns="http://www.w3.org/2000/svg">
<g clip-path="url(#clip0_16_57)">
<ellipse cx="257.5" cy="208.5" rx="474.5" ry="198.5" fill="#698DAA"/>
<ellipse cx="272" cy="293.5" rx="386" ry="242.5" fill="#CBE2F4"/>
<path d="M543 150.38C314.011 30.1596 85.588 100.288 0 150.38V216H543V150.38Z" fill="#181C30"/>
<path d="M63.9394 118.23C17.6362 135.812 51.373 151.855 74.0293 157.679C28.644 141.783 54.7219 129.764 67.5596 123.464C77.8299 118.424 272.536 81.7092 368.605 63.9817C368.904 62.342 368.643 58.1948 365.21 54.7229C360.919 50.3831 121.818 96.2525 63.9394 118.23Z" fill="white"/>
<path d="M178 193L179.824 190.12L190 178.888L178 164.776H190.048L195.952 173.464H196.48L202.384 164.776H214.432L212.56 167.608L202.432 178.888L214.432 193H202.384L196.48 184.264H195.952L190.048 193H178ZM226.073 193C222.681 193 220.201 192.248 218.633 190.744C217.097 189.208 216.329 186.776 216.329 183.448V174.28C216.329 171.016 217.097 168.616 218.633 167.08C220.169 165.544 222.649 164.776 226.073 164.776H240.089C243.449 164.776 245.897 165.544 247.433 167.08C249.001 168.616 249.785 171.016 249.785 174.28V183.448C249.785 186.776 249.001 189.208 247.433 190.744C245.865 192.248 243.417 193 240.089 193H226.073ZM229.385 186.472H236.825C239.321 186.472 240.569 185.336 240.569 183.064V174.664C240.569 172.424 239.321 171.304 236.825 171.304H229.385C228.105 171.304 227.145 171.56 226.505 172.072C225.865 172.584 225.545 173.448 225.545 174.664V183.064C225.545 184.248 225.865 185.112 226.505 185.656C227.145 186.2 228.105 186.472 229.385 186.472ZM251.688 193L253.512 190.12L263.688 178.888L251.688 164.776H263.736L269.64 173.464H270.168L276.072 164.776H288.12L286.248 167.608L276.12 178.888L288.12 193H276.072L270.168 184.264H269.64L263.736 193H251.688ZM299.76 193C296.368 193 293.888 192.248 292.32 190.744C290.784 189.208 290.016 186.776 290.016 183.448V174.28C290.016 171.016 290.784 168.616 292.32 167.08C293.856 165.544 296.336 164.776 299.76 164.776H313.776C317.136 164.776 319.584 165.544 321.12 167.08C322.688 168.616 323.472 171.016 323.472 174.28V183.448C323.472 186.776 322.688 189.208 321.12 190.744C319.552 192.248 317.104 193 313.776 193H299.76ZM303.072 186.472H310.512C313.008 186.472 314.256 185.336 314.256 183.064V174.664C314.256 172.424 313.008 171.304 310.512 171.304H303.072C301.792 171.304 300.832 171.56 300.192 172.072C299.552 172.584 299.232 173.448 299.232 174.664V183.064C299.232 184.248 299.552 185.112 300.192 185.656C300.832 186.2 301.792 186.472 303.072 186.472ZM325.759 193L339.823 164.776H352.303L366.319 193H355.999L353.647 187.864H338.479L335.839 193H325.759ZM341.119 181.24H350.959L346.303 171.016H345.823L341.119 181.24ZM379.583 193.48C376.383 193.48 373.951 192.728 372.287 191.224C370.655 189.72 369.839 187.288 369.839 183.928V164.776H379.199V183.064C379.199 184.568 379.567 185.576 380.303 186.088C381.039 186.6 381.951 186.856 383.039 186.856H389.231C390.255 186.856 391.151 186.6 391.919 186.088C392.687 185.544 393.071 184.536 393.071 183.064V164.776H402.287V183.928C402.287 187.288 401.471 189.72 399.839 191.224C398.239 192.728 395.823 193.48 392.591 193.48H379.583ZM409.231 193V164.776H418.495V175.528H433.423V164.776H442.639V193H433.423V182.056H418.495V193H409.231ZM459.604 193C456.18 193 453.7 192.248 452.164 190.744C450.628 189.24 449.86 186.808 449.86 183.448V174.664C449.86 171.208 450.708 168.696 452.404 167.128C454.1 165.528 456.5 164.728 459.604 164.728H473.62C475.828 164.728 477.508 164.856 478.66 165.112C479.844 165.336 480.436 165.576 480.436 165.832L478.948 171.832C478.148 171.736 476.58 171.64 474.244 171.544C471.94 171.416 469.028 171.352 465.508 171.352H463.06C461.556 171.352 460.532 171.64 459.988 172.216C459.476 172.76 459.22 173.608 459.22 174.76V182.968C459.22 184.056 459.444 184.904 459.892 185.512C460.372 186.088 461.428 186.376 463.06 186.376H465.028C469.604 186.376 473.092 186.328 475.492 186.232C477.892 186.104 479.332 185.976 479.812 185.848L482.74 191.032C482.74 191.192 482.404 191.432 481.732 191.752C481.092 192.072 479.988 192.36 478.42 192.616C476.884 192.872 474.74 193 471.988 193H459.604ZM496.823 193C493.431 193 490.951 192.248 489.383 190.744C487.847 189.208 487.079 186.776 487.079 183.448V174.28C487.079 171.016 487.847 168.616 489.383 167.08C490.919 165.544 493.399 164.776 496.823 164.776H510.839C514.199 164.776 516.647 165.544 518.183 167.08C519.751 168.616 520.535 171.016 520.535 174.28V183.448C520.535 186.776 519.751 189.208 518.183 190.744C516.615 192.248 514.167 193 510.839 193H496.823ZM500.135 186.472H507.575C510.071 186.472 511.319 185.336 511.319 183.064V174.664C511.319 172.424 510.071 171.304 507.575 171.304H500.135C498.855 171.304 497.895 171.56 497.255 172.072C496.615 172.584 496.295 173.448 496.295 174.664V183.064C496.295 184.248 496.615 185.112 497.255 185.656C497.895 186.2 498.855 186.472 500.135 186.472Z" fill="white"/>
<g filter="url(#filter0_d_16_57)">
<path d="M145.84 147V118.776H155.056V147H145.84ZM162.715 147L163.195 143.16V118.776H172.411V140.424H189.403L192.283 146.472C192.283 146.6 191.851 146.728 190.987 146.856C190.123 146.952 188.635 147 186.523 147H162.715ZM196.137 147V118.776H205.353V147H196.137ZM213.012 147V118.776H222.276V129.528H237.204V118.776H246.42V147H237.204V136.056H222.276V147H213.012ZM263.145 147.48C259.945 147.48 257.513 146.728 255.849 145.224C254.217 143.72 253.401 141.288 253.401 137.928V118.776H262.761V137.064C262.761 138.568 263.129 139.576 263.865 140.088C264.601 140.6 265.513 140.856 266.601 140.856H272.793C273.817 140.856 274.713 140.6 275.481 140.088C276.249 139.544 276.633 138.536 276.633 137.064V118.776H285.849V137.928C285.849 141.288 285.033 143.72 283.401 145.224C281.801 146.728 279.385 147.48 276.153 147.48H263.145ZM292.793 147V118.776H302.009V147H292.793ZM294.761 115.608C294.761 115.192 294.905 114.616 295.193 113.88C295.513 113.112 295.865 112.36 296.249 111.624C296.633 110.856 296.937 110.28 297.161 109.896C297.449 109.448 297.801 109.112 298.217 108.888C298.665 108.632 299.273 108.504 300.041 108.504H301.049C301.945 108.504 302.553 108.616 302.873 108.84C303.225 109.032 303.401 109.384 303.401 109.896C303.401 110.408 303.081 111.016 302.441 111.72C301.833 112.392 301.081 113.064 300.185 113.736C299.321 114.408 298.473 115.016 297.641 115.56C297.289 115.784 296.873 115.976 296.393 116.136C295.945 116.296 295.561 116.344 295.241 116.28C294.921 116.216 294.761 115.992 294.761 115.608ZM318.932 147C315.508 147 313.028 146.248 311.492 144.744C309.956 143.24 309.188 140.808 309.188 137.448V128.664C309.188 125.208 310.036 122.696 311.732 121.128C313.428 119.528 315.828 118.728 318.932 118.728H332.948C335.156 118.728 336.836 118.856 337.988 119.112C339.172 119.336 339.764 119.576 339.764 119.832L338.276 125.832C337.476 125.736 335.908 125.64 333.572 125.544C331.268 125.416 328.356 125.352 324.836 125.352H322.388C320.884 125.352 319.86 125.64 319.316 126.216C318.804 126.76 318.548 127.608 318.548 128.76V136.968C318.548 138.056 318.772 138.904 319.22 139.512C319.7 140.088 320.756 140.376 322.388 140.376H324.356C328.932 140.376 332.42 140.328 334.82 140.232C337.22 140.104 338.66 139.976 339.14 139.848L342.068 145.032C342.068 145.192 341.732 145.432 341.06 145.752C340.42 146.072 339.316 146.36 337.748 146.616C336.212 146.872 334.068 147 331.316 147H318.932ZM343.431 147L357.495 118.776H369.975L383.991 147H373.671L371.319 141.864H356.151L353.511 147H343.431ZM358.791 135.24H368.631L363.975 125.016H363.495L358.791 135.24ZM391.993 147V125.256H380.569V118.728H412.873V125.256H401.305V147H391.993ZM417.668 147L418.148 143.16V118.776H427.364V140.424H444.356L447.236 146.472C447.236 146.6 446.804 146.728 445.94 146.856C445.076 146.952 443.588 147 441.476 147H417.668Z" fill="white"/>
</g>
<rect x="115" y="153" width="162" height="3" fill="#00B015"/>
<rect x="231" y="153" width="162" height="3" fill="white"/>
<rect x="348" y="153" width="135" height="3" fill="#FF0000"/>
<path d="M358.432 57.7021L352.978 70.5379L390.568 52.3855L353.951 50.4617L358.432 57.7021Z" fill="#323232"/>
<path d="M115 49.1579C120.616 49.5088 122.367 40.5322 122.54 36C122.54 46.3709 125.645 49.0585 127.554 49.178C127.699 49.1647 127.847 49.1579 128 49.1579C127.861 49.1802 127.712 49.1879 127.554 49.178C123.454 49.5548 122.452 55.1448 122.46 59.1495C122.512 59.7344 122.54 60.3508 122.54 61C122.492 60.4493 122.462 59.8217 122.46 59.1495C121.81 51.8305 117.327 49.4287 115 49.1579Z" fill="white"/>
<path d="M433.405 47.5881C432.758 56.2935 438.492 59.2916 441.439 59.7025C434.665 59.3779 432.679 64.1137 432.459 67.0718C432.456 67.297 432.45 67.528 432.438 67.7649C432.434 67.5486 432.44 67.3162 432.459 67.0718C432.517 60.6961 428.94 58.9672 426.324 58.8545C425.938 58.9169 425.533 58.9403 425.109 58.92C425.473 58.8622 425.885 58.8356 426.324 58.8545C431.153 58.0736 433.055 51.1918 433.405 47.5881Z" fill="white"/>
<path d="M43.6812 67.2725C43.0831 76.2293 47.26 79.2305 49.4232 79.6115C44.4428 79.3728 42.9146 84.2683 42.7113 87.3119C42.7066 87.5434 42.6985 87.7809 42.6868 88.0246C42.6867 87.8023 42.6945 87.5634 42.7113 87.3119C42.844 80.7578 40.2361 79.031 38.3123 78.9518C38.0275 79.0214 37.7293 79.0511 37.4176 79.0362C37.6858 78.9717 37.9894 78.9385 38.3123 78.9518C41.8769 78.0815 43.3732 70.9814 43.6812 67.2725Z" fill="white"/>
<path d="M298.422 15.176C297.99 21.9223 300.673 24.1603 302.069 24.4361C298.852 24.2819 297.84 27.9753 297.693 30.2677C297.688 30.442 297.682 30.6209 297.673 30.8044C297.674 30.6371 297.68 30.4572 297.693 30.2677C297.812 25.3328 296.136 24.0461 294.893 23.9964C294.709 24.0502 294.516 24.0741 294.314 24.0645C294.488 24.0145 294.684 23.988 294.893 23.9964C297.201 23.3228 298.204 17.9699 298.422 15.176Z" fill="white"/>
<path d="M421.431 36.1811C421.038 42.041 423.815 44.0066 425.254 44.257C421.943 44.0984 420.93 47.3005 420.796 49.2917C420.793 49.4432 420.788 49.5986 420.78 49.758C420.78 49.6126 420.785 49.4563 420.796 49.2917C420.881 45.0037 419.147 43.8726 417.868 43.8198C417.679 43.8652 417.48 43.8845 417.273 43.8746C417.451 43.8325 417.653 43.811 417.868 43.8198C420.237 43.2522 421.228 38.6076 421.431 36.1811Z" fill="white"/>
</g>
<defs>
<filter id="filter0_d_16_57" x="141.84" y="108.504" width="309.396" height="46.976" filterUnits="userSpaceOnUse" color-interpolation-filters="sRGB">
<feFlood flood-opacity="0" result="BackgroundImageFix"/>
<feColorMatrix in="SourceAlpha" type="matrix" values="0 0 0 0 0 0 0 0 0 0 0 0 0 0 0 0 0 0 127 0" result="hardAlpha"/>
<feOffset dy="4"/>
<feGaussianBlur stdDeviation="2"/>
<feComposite in2="hardAlpha" operator="out"/>
<feColorMatrix type="matrix" values="0 0 0 0 0 0 0 0 0 0 0 0 0 0 0 0 0 0 0.25 0"/>
<feBlend mode="normal" in2="BackgroundImageFix" result="effect1_dropShadow_16_57"/>
<feBlend mode="normal" in="SourceGraphic" in2="effect1_dropShadow_16_57" result="shape"/>
</filter>
<clipPath id="clip0_16_57">
<rect width="543" height="213" fill="white"/>
</clipPath>
</defs>
</svg>
